<?xml version="1.0" standalone="no"?><!DOCTYPE svg PUBLIC "-//W3C//DTD SVG 1.1//EN" "http://www.w3.org/Graphics/SVG/1.1/DTD/svg11.dtd"><svg t="1586641799714" class="icon" viewBox="0 0 1024 1024" version="1.1" xmlns="http://www.w3.org/2000/svg" p-id="5135" xmlns:xlink="http://www.w3.org/1999/xlink" width="512" height="512"><defs><style type="text/css"></style></defs><path d="M288.821825 735.024683l173.139602-29.675227 466.617368-466.617368c18.316778-18.316778 29.675227-43.694214 29.675227-71.732187 0-56.075947-45.433796-101.407415-101.407415-101.407415-28.037973 0-53.415409 11.358449-71.732187 29.675227l-466.617368 466.617368L288.821825 735.024683zM813.868692 124.021985c11.051464-11.051464 26.196063-17.805136 43.080244-17.805136 33.563705 0 60.88538 27.219346 60.88538 60.88538 0 16.781853-6.856001 32.02878-17.805136 43.080244l-26.196063 26.196063-86.058159-86.058159L813.868692 124.021985zM758.918357 178.869991l86.058159 86.058159L471.375637 638.52903 471.375637 552.47087l-86.058159 0L758.918357 178.869991zM355.232937 592.992905 430.853602 592.992905l0 75.620666-91.276906 15.758569L355.232937 592.992905zM937.993005 369.917058c-11.256121 0-20.261017 9.107225-20.261017 20.261017l0 446.356351c0 44.819826-36.326571 81.146398-81.146398 81.146398L187.41441 917.680823c-44.819826 0-81.146398-36.326571-81.146398-81.146398l0-649.17118c0-44.819826 36.326571-81.146398 81.146398-81.146398l446.356351 0c11.256121 0 20.261017-9.107225 20.261017-20.261017s-9.107225-20.261017-20.261017-20.261017L187.41441 65.694814c-67.229739 0-121.77076 54.541021-121.77076 121.77076l0 649.17118c0 67.229739 54.541021 121.77076 121.77076 121.77076l649.17118 0c67.229739 0 121.77076-54.438693 121.77076-121.77076L958.356351 390.280404C958.356351 378.921955 949.249126 369.917058 937.993005 369.917058z" p-id="5136"></path></svg>