<svg id="Capa_1" enable-background="new 0 0 512 512" height="512" viewBox="0 0 512 512" width="512" xmlns="http://www.w3.org/2000/svg"><g><g><g><g><g><g><g><g><g><g><path d="m286.106 224.401h53.919v245.004h-53.919z" fill="#7ba0b0"/><path d="m391.952 393.148-15.919-30.017h5.882c7.562 0 13.971-5 16.103-11.86l.012-.038c.76-2.464.294-5.155-1.285-7.193-3.124-4.031-8.007-6.629-13.502-6.629h-73.352c-13.136 0-23.785-10.649-23.785-23.785v-9.82c0-.041-.006-.081-.006-.122l.006-20.633c-19.126 0-37.197 8.771-49.03 23.797l-12.054 15.308c-7.336 9.315-18.538 14.752-30.395 14.752h-17.902v135.541h33.76c4.904 0 9.763.932 14.318 2.747l31.931 12.721c16.885 5.756 34.602 8.693 52.44 8.693h47.469c7.59 0 14.072-5.314 16.185-12.212-1.268-11.133-6.101-21.558-13.777-29.721l-2.408-2.56h10.804c7.694 0 14.19-5.236 16.211-12.28.094-.329-.089-1.427-.432-2.938-2.152-9.488-6.598-18.305-12.842-25.766l-2.937-3.509h8.586c7.61 0 14.059-5.132 16.154-12.058.244-.806.16-1.675-.235-2.418z" fill="#ffece3"/></g><path d="m477.702 255.152h-324.472c-18.942 0-34.298-15.356-34.298-34.298v-173.233c0-18.942 15.356-34.298 34.298-34.298h324.472c18.942 0 34.298 15.356 34.298 34.298v173.232c0 18.943-15.356 34.299-34.298 34.299z" fill="#fbbe66"/><path d="m156.17 224.401c-2.934 0-5.32-2.386-5.32-5.32v-169.688c0-2.933 2.386-5.319 5.32-5.319h318.591c2.933 0 5.319 2.386 5.319 5.319v169.687c0 2.933-2.386 5.32-5.319 5.32h-318.591z" fill="#f9f6f6"/><path d="m474.762 44.074h-41.748c2.933 0 5.319 2.386 5.319 5.319v169.687c0 2.934-2.386 5.32-5.319 5.32h41.748c2.933 0 5.319-2.386 5.319-5.32v-169.687c0-2.933-2.386-5.319-5.319-5.319z" fill="#e7ecf1"/></g><path d="m172.879 322.776h-164.389c-4.689 0-8.49 3.801-8.49 8.49v147.225c0 4.689 3.801 8.49 8.49 8.49h164.39v-164.205z" fill="#8db9c2"/><path d="m184.806 311.08h-32.282c-6.236 0-11.292 5.056-11.292 11.292v165.014c0 6.236 5.056 11.292 11.292 11.292h32.282c6.236 0 11.292-5.056 11.292-11.292v-165.015c0-6.236-5.056-11.291-11.292-11.291z" fill="#7ba0b0"/></g></g></g></g></g></g><g fill="#fc8086"><path d="m235.204 91.273c-.027-.071-.055-.141-.084-.212-1.484-3.607-4.961-5.936-8.86-5.936-.003 0-.007 0-.01 0-3.903.004-7.38 2.341-8.858 5.954-.024.058-.047.116-.069.175l-30.624 80.407c-1.52 3.991.483 8.458 4.474 9.978 3.991 1.518 8.458-.484 9.978-4.474l5.73-15.045h38.529l5.67 15.023c1.169 3.096 4.111 5.004 7.236 5.004.907 0 1.83-.161 2.728-.5 3.996-1.508 6.012-5.969 4.505-9.964zm-22.433 55.382 13.463-35.349 13.34 35.349z"/><path d="m316.663 86.332h-22.415c-2.053 0-4.022.817-5.473 2.27s-2.264 3.424-2.26 5.477v.065.003 77.775c0 .563.064 1.11.178 1.639.089 1.932.89 3.766 2.268 5.134 1.449 1.438 3.407 2.245 5.447 2.245h.03c.677-.003 16.644-.064 23.016-.175 22.541-.394 38.902-20.215 38.902-47.129 0-28.295-15.951-47.304-39.693-47.304zm.522 78.97c-3.432.06-9.897.106-15.07.135-.03-9.31-.077-24.589-.077-31.889 0-6.122-.026-22.097-.043-31.752h14.668c17.863 0 24.228 16.447 24.228 31.839.001 15.052-7.418 31.382-23.706 31.667z"/><path d="m422.224 127.024c-10.418-3.843-20.087-8.036-22.614-9.146-2.438-1.81-3.62-4.684-3.173-7.793.57-3.971 3.641-7.164 8.214-8.542 12.831-3.867 24.468 5.442 24.716 5.643 3.269 2.721 8.126 2.291 10.865-.969 2.748-3.269 2.325-8.147-.944-10.894-.728-.613-18.076-14.922-39.097-8.588-10.331 3.112-17.635 11.217-19.062 21.152-1.329 9.262 2.683 18.171 10.47 23.248.342.223.7.418 1.073.584.469.209 11.628 5.177 24.2 9.814 8.787 3.241 13.257 8.288 12.265 13.846-.992 5.556-7.499 11.302-16.67 11.302-8.79 0-17.272-3.57-22.69-9.549-2.867-3.164-7.757-3.406-10.922-.538-3.164 2.867-3.405 7.758-.538 10.922 8.301 9.161 21.067 14.63 34.15 14.63 15.735 0 29.446-10.339 31.894-24.048 1.855-10.391-2.986-24.01-22.137-31.074z"/></g></g><g fill="#ffddce"><path d="m381.916 318.638h-80.867c-8.217 0-14.879-6.63-14.943-14.831v12.144c0 12.957 10.503 23.46 23.46 23.46h72.35c7.57 0 13.974 4.99 16.103 11.86.489-1.579.754-3.257.754-4.997v-10.779c-.001-9.31-7.548-16.857-16.857-16.857z"/><path d="m376.034 363.131h-71.37v.43c0 11.008 8.924 19.932 19.932 19.932h51.438l3.63.402c6.002 1.319 10.796 5.835 12.524 11.671.452-1.522.703-3.13.703-4.799v-10.779c0-9.31-7.547-16.857-16.857-16.857z"/><path d="m367.447 407.624h-53.505c0 11.008 8.924 19.932 19.932 19.932h33.573c7.721 0 14.215 5.198 16.211 12.281.411-1.457.646-2.988.646-4.577v-10.779c.001-9.31-7.547-16.857-16.857-16.857z"/><path d="m356.643 452.117h-33.422v.172c0 11.008 8.924 19.932 19.932 19.932h13.49c7.684 0 14.155 5.147 16.185 12.177.426-1.478.672-3.031.672-4.645v-10.779c.001-9.31-7.547-16.857-16.857-16.857z"/></g></g></svg>