<svg height="512pt" viewBox="0 0 512 512" width="512pt" xmlns="http://www.w3.org/2000/svg"><path d="m452 0h-392c-33.085938 0-60 26.914062-60 60v392c0 33.085938 26.914062 60 60 60h392c33.085938 0 60-26.914062 60-60v-392c0-33.085938-26.914062-60-60-60zm20 452c0 11.027344-8.972656 20-20 20h-392c-11.027344 0-20-8.972656-20-20v-392c0-11.027344 8.972656-20 20-20h392c11.027344 0 20 8.972656 20 20zm-183-101v36h-66v-36c0-18.226562 14.773438-33 33-33s33 14.773438 33 33zm-141-221h40v110h-40zm177 0h40v110h-40zm0 0"/></svg>