<svg t="1587200494462" class="icon" viewBox="0 0 1024 1024" version="1.1" xmlns="http://www.w3.org/2000/svg" p-id="11981" width="512" height="512">
    <path d="M1004.449 965.787l-158.69-158.69A477.774 477.774 0 0 0 962.473 562.75a34.127 34.127 0 1 0-68.254-10.92 413.957 413.957 0 0 1-816.994 0 34.127 34.127 0 0 0-39.245-28.326A34.127 34.127 0 0 0 9.654 562.75 483.576 483.576 0 0 0 794.57 854.875l161.079 159.03a34.127 34.127 0 0 0 48.46 0 34.127 34.127 0 0 0 0.34-48.118zM38.662 450.814a34.127 34.127 0 0 0 38.905-28.666 413.957 413.957 0 0 1 819.041 0 34.127 34.127 0 0 0 34.127 29.007h5.12a34.127 34.127 0 0 0 28.666-38.904 482.21 482.21 0 0 0-953.501 0 34.127 34.127 0 0 0 27.642 38.563z m564.115 120.468a163.467 163.467 0 0 1-230.697 0 34.127 34.127 0 0 0-47.777 48.8A242.641 242.641 0 0 0 487.77 686.63a238.887 238.887 0 0 0 160.737-63.817 34.127 34.127 0 0 0 3.071-48.46 34.127 34.127 0 0 0-48.8-3.071z" p-id="11982"></path>
</svg>